<?xml version="1.0" encoding="UTF-8"?>
<svg xmlns="http://www.w3.org/2000/svg" viewBox="0 0 512 512">
  <defs>
    <linearGradient id="g" x1="0" y1="0" x2="1" y2="1">
      <stop offset="0%" stop-color="#0ea5e9"/>
      <stop offset="100%" stop-color="#22c55e"/>
    </linearGradient>
  </defs>
  <rect width="512" height="512" rx="96" fill="url(#g)"/>
  <!-- Open book -->
  <path fill="#ffffff" opacity="0.9" d="M96 160c0-17.7 14.3-32 32-32h112c26.5 0 48 21.5 48 48v176c-16-16-40.5-24-72-24H160c-35.3 0-64 28.7-64 64V160zm320 0v232c0-35.3-28.7-64-64-64H296c-31.5 0-56 8-72 24V176c0-26.5 21.5-48 48-48h112c17.7 0 32 14.3 32 32z"/>
  <!-- Heart -->
  <path fill="#fffbfb" d="M256 234c-15.3-33.2-65.8-36.7-84.6-4.8C160.5 257.9 181 290 224 318c12.4 8.1 20.5 12 32 12s19.6-3.9 32-12c42.9-28 63.5-60.1 52.6-88.8-18.8-31.9-69.3-28.4-84.6 4.8z"/>
</svg>
